<?xml version="1.0" encoding="UTF-8"?>
<!-- Generator: Adobe Illustrator 19.1.0, SVG Export Plug-In . SVG Version: 6.00 Build 0)  -->
<svg xmlns="http://www.w3.org/2000/svg" xmlns:xlink="http://www.w3.org/1999/xlink" xmlns:dc="http://purl.org/dc/elements/1.1/" xmlns:cc="http://creativecommons.org/ns#" xmlns:rdf="http://www.w3.org/1999/02/22-rdf-syntax-ns#" version="1.1" id="DESIGNS" x="0px" y="0px" width="32px" height="32px" viewBox="0 0 32 32" style="enable-background:new 0 0 32 32;" xml:space="preserve">
<title property="dc:title">to edit</title><desc property="dc:description">An icon for "edit" from the Lines and Angles series on to [icon]. Downloaded from http://www.toicon.com/icons/lines-and-angles_edit by 127.0.0.1 on 2017-07-10. Licensed CC-BY, see http://toicon.com/license/ for details.</desc>
<path class="linesandangles_een" d="M21,3L3,21v8h8l18-18L21,3z M26.172,11l-1.879,1.879l-5.172-5.172L21,5.828L26.172,11z   M6.121,20.707l1.624-1.624c0.613,0.45,1.43,0.801,2.324,0.801c0.859,0,1.781-0.32,2.638-1.177l4-4  c1.008-1.008,1.849-3.091,0.387-4.972l0.614-0.614l5.172,5.172L11.293,25.879L6.121,20.707z M15.293,13.293l-4,4  c-0.825,0.823-1.603,0.638-2.108,0.35l6.471-6.471C16.242,12.166,15.548,13.029,15.293,13.293z M5,22.414L9.586,27H5V22.414z" style="fill: #111918;"/>
<metadata><work rdf:about=""><format>image/svg+xml</format><type rdf:resource="http://purl.org/dc/dcmitype/StillImage"/><license rdf:resource="http://creativecommons.org/licenses/by/4.0/"/><attributionname>Shannon E Thomas</attributionname><attributionurl>http://www.toicon.com/icons/lines-and-angles_edit</attributionurl></work></metadata></svg>
